<svg xmlns="http://www.w3.org/2000/svg" viewBox="0 193.48 143.998 45.039"><path fill="#FFF" d="M0 204.956h17.592v1.011l-5.96.008 9.374 22.812 9.74-22.82h-5.96v-1.011h11.049v1.011h-3.926L18.17 238.52 4.944 205.967H0zM38.032 222.126c0 .403-.01.817-.031 1.241a37.975 37.975 0 00.209 5.783c.164 1.453.515 2.765 1.061 3.936a7.296 7.296 0 002.424 2.904c1.071.768 2.493 1.151 4.269 1.151 1.778 0 3.241-.261 4.392-.786 1.151-.524 2.06-1.162 2.726-1.908.667-.748 1.159-1.506 1.484-2.271.323-.768.566-1.395.728-1.879l.907.184c-.119.443-.354 1.08-.697 1.907s-.887 1.655-1.635 2.483c-.748.827-1.757 1.55-3.029 2.166-1.273.615-2.918.924-4.936.924-2.019 0-3.888-.322-5.603-.967-1.717-.645-3.2-1.572-4.451-2.783-1.252-1.206-2.223-2.648-2.908-4.321-.687-1.671-1.03-3.535-1.03-5.593 0-1.773.354-3.496 1.061-5.17a14.585 14.585 0 012.91-4.443 14.6 14.6 0 014.337-3.115c1.655-.785 3.433-1.178 5.334-1.178 1.132 0 2.344.201 3.637.605a10.693 10.693 0 013.606 1.965c1.113.908 2.043 2.107 2.791 3.6.746 1.493 1.122 3.348 1.122 5.565H38.032zm12.493-.884a10.58 10.58 0 00.126-1.572v-1.509c0-1.372-.131-2.5-.395-3.386-.263-.887-.625-1.591-1.093-2.116a3.857 3.857 0 00-1.696-1.117 6.81 6.81 0 00-2.153-.333c-1.377 0-2.509.272-3.397.817a6.02 6.02 0 00-2.123 2.204c-.527.926-.921 1.996-1.183 3.204a25.051 25.051 0 00-.517 3.807h12.431zM59.678 236.295h4.663v-24.263h-4.663v-.884h9.774v6.499l.125.011a26.64 26.64 0 011.059-1.997c.464-.806 1.101-1.591 1.909-2.359.807-.766 1.816-1.422 3.025-1.968 1.211-.544 2.686-.816 4.422-.816 2.661 0 4.832.646 6.506 1.936 1.676 1.292 2.514 3.348 2.514 6.173v17.67h4.663v.846H79.109v-.846h4.666v-19.568c0-1.576-.374-2.869-1.12-3.878-.745-1.008-1.901-1.515-3.472-1.515a8.33 8.33 0 00-3.686.85 9.698 9.698 0 00-3.079 2.36c-.887 1.01-1.582 2.202-2.085 3.576-.503 1.371-.754 2.866-.754 4.481v13.691h4.663v.847H59.679v-.847h-.001zM111.809 193.48h9.902v42.814h4.663v.848H116.6v-5.292h-.125a16.257 16.257 0 01-.729 1.756c-.321.687-.799 1.353-1.423 1.995-.625.647-1.414 1.203-2.361 1.666-.951.462-2.111.695-3.484.695-1.776 0-3.461-.383-5.059-1.148a14.173 14.173 0 01-4.213-3.084 14.908 14.908 0 01-2.873-4.443 13.463 13.463 0 01-1.061-5.291c0-1.814.343-3.547 1.029-5.199.684-1.652 1.613-3.095 2.783-4.324a14.005 14.005 0 014.059-2.964 11.09 11.09 0 014.905-1.118c2.222 0 4.019.544 5.392 1.632 1.371 1.084 2.342 2.413 2.906 3.983l.148-.012-.02-21.666h-4.666v-.848zm-10.476 29.788c0 2.102.056 4.01.179 5.727.119 1.717.423 3.182.909 4.393.481 1.212 1.208 2.141 2.177 2.786.973.649 2.283.97 3.938.97 1.695 0 3.06-.363 4.09-1.091a7.357 7.357 0 002.391-2.817c.568-1.15.951-2.434 1.152-3.846.201-1.414.305-2.788.305-4.12 0-1.577-.032-2.938-.092-4.089a25.25 25.25 0 00-.332-3.061c-.16-.89-.385-1.656-.668-2.304s-.625-1.252-1.027-1.818c-.607-.807-1.396-1.474-2.366-1.999-.967-.523-2.198-.787-3.692-.787-1.414 0-2.577.282-3.486.848-.906.566-1.613 1.373-2.117 2.424-.505 1.05-.86 2.312-1.062 3.786-.198 1.475-.299 3.14-.299 4.998M129.436 236.295h4.663v-24.264h-4.663v-.884h9.9v25.148h4.662v.847h-14.562v-.847zm3.906-35.148c0-.891.316-1.65.94-2.277a3.105 3.105 0 012.278-.942c.893 0 1.65.314 2.277.942.628.627.942 1.387.942 2.277s-.314 1.65-.942 2.277a3.1 3.1 0 01-2.277.94 3.102 3.102 0 01-2.278-.94 3.113 3.113 0 01-.94-2.277"/></svg>