<?xml version="1.0" encoding="utf-8"?>
<!-- Generator: Adobe Illustrator 25.3.1, SVG Export Plug-In . SVG Version: 6.00 Build 0)  -->
<svg version="1.1" id="Layer_1" xmlns="http://www.w3.org/2000/svg" xmlns:xlink="http://www.w3.org/1999/xlink" x="0px" y="0px"
	 viewBox="0 0 78 272" style="enable-background:new 0 0 78 272;" xml:space="preserve" fill="currentColor">
<g class="st0">
	<path class="st1" d="M23.6,74.3l2,2.5c-5,5.2-7.9,12.5-7.9,18.6c0,0.7,0,1.6,0.5,2.5c1.1-0.2,1.8-0.5,3.6-0.5
		c7.7,0,13.4,6.1,13.4,13.4c0,8.4-6.1,14.1-14.3,14.1c-9.8,0-15.4-8.6-15.4-18.8c0-12.5,6.4-24.3,14.1-31.6
		C21.1,73.1,22.5,73.1,23.6,74.3z M60.4,74.3l2,2.5c-5,5.2-7.9,12.5-7.9,18.6c0,0.7,0,1.6,0.5,2.5c1.1-0.2,1.8-0.5,3.6-0.5
		c7.7,0,13.4,6.1,13.4,13.4c0,8.4-6.1,14.1-14.3,14.1c-9.8,0-15.4-8.6-15.4-18.8c0-12.5,6.4-24.3,14.1-31.6
		C57.9,73.1,59.2,73.1,60.4,74.3z"/>
</g>
</svg>
